<?xml version="1.0" encoding="UTF-8" standalone="no"?>
<svg
   width="16"
   height="16"
   fill="currentColor"
   class="bi bi-distribute-horizontal"
   viewBox="0 0 16 16"
   version="1.1"
   id="svg6"
   sodipodi:docname="toggler.svg"
   inkscape:version="1.1 (c68e22c387, 2021-05-23)"
   xmlns:inkscape="http://www.inkscape.org/namespaces/inkscape"
   xmlns:sodipodi="http://sodipodi.sourceforge.net/DTD/sodipodi-0.dtd"
   xmlns="http://www.w3.org/2000/svg"
   xmlns:svg="http://www.w3.org/2000/svg">
  <defs
     id="defs10" />
  <sodipodi:namedview
     id="namedview8"
     pagecolor="#ffffff"
     bordercolor="#666666"
     borderopacity="1.0"
     inkscape:pageshadow="2"
     inkscape:pageopacity="0.0"
     inkscape:pagecheckerboard="0"
     showgrid="false"
     inkscape:zoom="35.885669"
     inkscape:cx="5.127395"
     inkscape:cy="3.8873457"
     inkscape:window-width="1920"
     inkscape:window-height="1001"
     inkscape:window-x="-9"
     inkscape:window-y="-9"
     inkscape:window-maximized="1"
     inkscape:current-layer="svg6" />
  <path
     d="m 13.078818,8.0379815 a 1,0.52427369 0 0 0 1,-0.5242737 V 6.4651604 a 1,0.52427369 0 0 0 -1,-0.5242737 H 3.0788177 a 1,0.52427369 0 0 0 -1,0.5242737 v 1.0485474 a 1,0.52427369 0 0 0 1,0.5242737 z"
     id="path4"
     style="stroke-width:0.724068;fill:#015a08;fill-opacity:1" />
  <path
     d="m 13.039409,5.2652962 a 1,0.52427369 0 0 0 1,-0.5242737 V 3.6924751 a 1,0.52427369 0 0 0 -1,-0.5242737 H 3.0394089 a 1,0.52427369 0 0 0 -1,0.5242737 v 1.0485474 a 1,0.52427369 0 0 0 1,0.5242737 z"
     id="path4-3"
     style="stroke-width:0.724068;fill:#015a08;fill-opacity:1" />
  <path
     d="m 13.137931,10.886831 a 1,0.52427369 0 0 0 1,-0.524274 V 9.3140099 a 1,0.52427369 0 0 0 -1,-0.5242737 h -10 a 1,0.52427369 0 0 0 -1,0.5242737 v 1.0485471 a 1,0.52427369 0 0 0 1,0.524274 z"
     id="path4-7"
     style="stroke-width:0.724068;fill:#015a08;fill-opacity:1" />
</svg>
